<svg width="28" height="28" viewBox="0 0 28 28" fill="none" xmlns="http://www.w3.org/2000/svg">
<path d="M4.97376 3.88889H24.1448C26.0922 3.88889 27.4672 5.82067 26.8514 7.69133L24.4739 14.9136C24.0856 16.0931 22.9953 16.8889 21.7674 16.8889H6.8078M4.97376 3.88889L4.91613 3.48034C4.71534 2.05713 3.51162 1 2.09184 1H1M4.97376 3.88889L6.8078 16.8889M6.8078 16.8889L7.06923 18.7418C7.27003 20.165 8.47375 21.2222 9.89352 21.2222H22.3972M22.3972 21.2222C20.8215 21.2222 19.5443 22.5156 19.5443 24.1111C19.5443 25.7066 20.8215 27 22.3972 27C23.9729 27 25.2502 25.7066 25.2502 24.1111C25.2502 22.5156 23.9729 21.2222 22.3972 21.2222ZM13.8383 24.1111C13.8383 25.7066 12.5611 27 10.9854 27C9.40972 27 8.1324 25.7066 8.1324 24.1111C8.1324 22.5156 9.40972 21.2222 10.9854 21.2222C12.5611 21.2222 13.8383 22.5156 13.8383 24.1111Z" stroke="#363838" stroke-width="2" stroke-linecap="round" stroke-linejoin="round"/>
</svg>
