<svg width="33" height="44" viewBox="0 0 33 44" fill="none" xmlns="http://www.w3.org/2000/svg">
<path d="M8.18642 7.93761L0 15.8693V19.4187V22.968L8.17431 15.048C12.6672 10.6949 16.3728 7.12214 16.4031 7.1104C16.4334 7.09867 20.1815 10.7067 24.7288 15.1184L33 23.144V19.5653V15.9867L24.747 7.99041C20.2117 3.59627 16.4697 5.72205e-06 16.4394 5.72205e-06C16.4031 5.72205e-06 12.6914 3.57281 8.18642 7.93761Z" fill="#363838"/>
<path d="M13.424 14.5376L10.5297 17.3419L10.4995 30.6709L10.4692 44H13.4059H16.3486L16.3607 39.5531L16.3789 35.112L21.8769 35.0944L27.3688 35.0827V39.5413V44H30.1844H33V35.7397V27.4853L30.1844 24.7573L27.3688 22.0293V25.7136V29.392L21.8769 29.3803L16.3789 29.3627L16.3486 20.5451L16.3184 11.7333L13.424 14.5376Z" fill="#363838"/>
<path d="M2.73689 35.1061L-0.00604248 37.752L1.25649e-05 40.8731V44H2.75506H5.5101V38.2213C5.5101 35.0416 5.50405 32.4485 5.49799 32.4485C5.48588 32.4544 4.2446 33.6512 2.73689 35.1061Z" fill="#363838"/>
</svg>
