<svg xmlns="http://www.w3.org/2000/svg" viewBox="0 0 32 32"><defs><style>.cls-1{fill:none;stroke:#000;stroke-linejoin:round;stroke-width:2px;}</style></defs><title>38-Find</title><g id="_38-Find" data-name="38-Find"><path class="cls-1" d="M25,13A12,12,0,1,1,13,1,12,12,0,0,1,25,13Z"/><polygon class="cls-1" points="25 28 28 31 31 28 28 25 25.43 22.43 23.93 23.93 22.43 25.43 25 28"/><polyline class="cls-1" points="24 24 23.93 23.93 21.49 21.49 21 21"/><path class="cls-1" d="M10,11a3,3,0,1,1,3,3v2"/><line class="cls-1" x1="12" y1="18" x2="14" y2="18"/><line class="cls-1" x1="25" y1="28" x2="28" y2="25"/><circle class="cls-1" cx="13" cy="13" r="8"/></g></svg>